# xmcd
#
# Track frame offsets:
#	182
#	15082
#	32822
#	44730
#	65727
#	82965
#	95545
#	110162
#	130687
#	147815
#
# Disc length: 2249 seconds
#
# Revision: 1
# Processed by: cddbd v1.5PL3 Copyright (c) Steve Scherf et al.
# Submitted via: audiograbber 1.82.02
#
DISCID=8308c70a
DTITLE=La Guardia - Al Otro Lado
DYEAR=1991
DGENRE=Pop Español
TTITLE0=No Se Donde Estoy
TTITLE1=Al Otro Lado
TTITLE2=Fiebre
TTITLE3=Cantando Al Amanecer
TTITLE4=La Llamada del Tambor
TTITLE5=Esta Es La Ley
TTITLE6=Un Laberinto Llamado Ciudad
TTITLE7=El lobo Solitario
TTITLE8=Canción de Rubias y de estancos
TTITLE9=Vives en un Barco
EXTD=
EXTT0=
EXTT1=
EXTT2=
EXTT3=
EXTT4=
EXTT5=
EXTT6=
EXTT7=
EXTT8=
EXTT9=
PLAYORDER=
